<?xml version="1.0" encoding="utf-8"?>
<!-- Generator: Adobe Illustrator 22.0.1, SVG Export Plug-In . SVG Version: 6.00 Build 0)  -->
<svg version="1.1" id="Capa_1" xmlns="http://www.w3.org/2000/svg" xmlns:xlink="http://www.w3.org/1999/xlink" x="0px" y="0px"
	 viewBox="0 0 494 494" style="enable-background:new 0 0 494 494;" xml:space="preserve">
<style type="text/css">
	.st0{fill:#C793ED;}
	.st1{fill:#FFFFFF;}
</style>
<g transform="matrix(1.25 0 0 -1.25 0 45)">
	<g>
		<g>
			<g>
				<path class="st0" d="M395.2-224.1c0-6.3-5-11.4-11.4-11.4l-56.9-0.1c-6.3,0-11.4,5.1-11.4,11.3c0,6.3,5.1,11.4,11.3,11.4
					l56.9,0.1C390.1-212.7,395.2-217.8,395.2-224.1"/>
				<path class="st0" d="M377.2-161.6c2.7-5.7,0.3-12.5-5.4-15.2l-51.4-24.4c-5.7-2.7-12.4-0.3-15.1,5.4s-0.3,12.4,5.4,15.2
					l51.4,24.4C367.7-153.5,374.5-155.9,377.2-161.6"/>
				<path class="st0" d="M377.5-286.6c2.7,5.7,0.2,12.5-5.5,15.1l-51.5,24.1c-5.7,2.7-12.5,0.2-15.1-5.4c-2.7-5.7-0.2-12.5,5.5-15.1
					l51.5-24.2C368.1-294.8,374.8-292.3,377.5-286.6"/>
			</g>
			<path class="st1" d="M305.8-129.9c-16.2,4.8-30.6,17.6-35.7,25.6c-8.6,13.7,1.8,17.3-1.8,55.6c-3.2,35.1-51.5,72.8-110.3,76.6
				c-26.7,1.7-54.4-3.7-82.9-19.3c-73-39.9-102-124.4-45.6-205.9C80.4-270.8,32.6-304,32.6-304s1.9-15.5,33.2-36.3
				s69.6-6.7,69.6-6.7s12.7,45,54,40.8c29.7-4.4,71.3,1.5,81.8,11.7c9.9,9.5-1.7,21.5,6.1,48.1c-26.9,2.6-41.7,15.5-43.1,33.5
				c29.9-2.9,42.2,6.6,50.7,17c-0.2,6.1-0.9,19.2-1.4,27.9C310.2-160.2,320.3-134.1,305.8-129.9"/>
		</g>
	</g>
</g>
</svg>
